<svg xmlns="http://www.w3.org/2000/svg" viewBox="0 0 256 256" role="img" aria-labelledby="title desc"><title id="title">Tu Salario RD</title><desc id="desc">Icono de calculadora inspirado en los colores de República Dominicana</desc><rect width="256" height="256" rx="56" fill="#ffffff"/><path d="M30 197c37 10 69 4 93-18 28-26 44-58 79-78 11-6 22-9 34-10v46c-11 1-22 5-31 10-27 17-42 43-66 65-29 27-65 38-109 31z" fill="#0f2d5b"/><path d="M25 168c41 8 77 1 106-24 26-23 42-52 72-69 10-6 21-9 33-10v35c-9 1-18 4-26 9-24 14-38 39-61 59-34 30-75 41-124 29z" fill="#e11d2e"/><path d="M55 36h91c19 0 34 15 34 34v99c0 19-15 34-34 34H55c-19 0-34-15-34-34V70c0-19 15-34 34-34z" fill="#0f2d5b"/><rect x="47" y="58" width="107" height="31" rx="8" fill="#f4f6fa"/><g fill="#f4f6fa"><rect x="47" y="106" width="25" height="25" rx="6"/><rect x="83" y="106" width="25" height="25" rx="6"/><rect x="119" y="106" width="25" height="25" rx="6"/><rect x="47" y="141" width="25" height="25" rx="6"/><rect x="83" y="141" width="25" height="25" rx="6"/></g><rect x="119" y="141" width="25" height="25" rx="6" fill="#e11d2e"/><circle cx="186" cy="167" r="42" fill="#ffffff" stroke="#0f2d5b" stroke-width="8"/><text x="186" y="176" text-anchor="middle" font-family="Arial, sans-serif" font-size="28" font-weight="700" fill="#0f2d5b">RD$</text></svg>